<mxfile host="app.diagrams.net" modified="2023-09-28T23:05:15.123Z" agent="Mozilla/5.0 (Windows NT 10.0; Win64; x64) AppleWebKit/537.36 (KHTML, like Gecko) Chrome/117.0.0.0 Safari/537.36" version="21.8.2" etag="XLGC4jFaeWB8ug28prdr" type="github">
  <diagram name="PÃ¡gina-1" id="wPMzCACa3LpgJ_y9biAb">
    <mxGraphModel>
      <root>
        <mxCell id="0" />
        <mxCell id="1" parent="0" />
      </root>
    </mxGraphModel>
  </diagram>
</mxfile>
